# xmcd
#
# Track frame offsets:
#	150
#	22488
#	47417
#	67131
#	91311
#	114198
#	135067
#	162953
#
# Disc length: 2481 seconds
#
# Revision: 0
# Processed by: cddbd v1.5.2PL0 Copyright (c) Steve Scherf et al.
# Submitted via: EZCDAudioConverter 7.1.5.1
#
DISCID=6109af08
DTITLE=刘鸿·邓洁仪 - 87'狂热 1
DYEAR=1987
DGENRE=
TTITLE0=邓洁仪 - 路灯下的小姑娘
TTITLE1=刘鸿·邓洁仪 - 挥手再见
TTITLE2=邓洁仪 - 误会
TTITLE3=刘鸿  - 爱的火焰 
TTITLE4=刘鸿  - 站台
TTITLE5=邓洁仪 - 痴迷的年龄
TTITLE6=刘鸿·邓洁仪 - 痛苦的等待
TTITLE7=刘鸿 - 快来跳舞
EXTD=
EXTT0=
EXTT1=
EXTT2=
EXTT3=
EXTT4=
EXTT5=
EXTT6=
EXTT7=
PLAYORDER=
